<?xml version="1.0" encoding="utf-8"?>
<!-- Generator: Adobe Illustrator 24.1.3, SVG Export Plug-In . SVG Version: 6.00 Build 0)  -->
<svg version="1.1" id="Layer_1" xmlns="http://www.w3.org/2000/svg" xmlns:xlink="http://www.w3.org/1999/xlink" x="0px" y="0px"
	 viewBox="0 0 804.96 398.4" style="enable-background:new 0 0 804.96 398.4;" xml:space="preserve">
<style type="text/css">
	.st0{fill:#549FDD;}
</style>
<path class="st0" d="M77.54,214.87c0-27.13,20.62-47.74,48.28-47.74c18.08,0,33.63,9.4,41.59,23.69l-28.21,16.09
	c-2.53-4.34-7.41-7.6-13.38-7.6c-8.5,0-14.83,6.51-14.83,15.55c0,9.04,6.33,15.55,14.83,15.55c5.97,0,11.03-3.26,13.38-7.78
	l28.21,16.27c-7.96,14.47-23.51,23.69-41.59,23.69C98.16,262.61,77.54,241.99,77.54,214.87z"/>
<path class="st0" d="M261.63,169.66v90.42h-33.45v-8.14c-5.43,6.69-13.38,10.67-24.23,10.67c-24.59,0-41.41-20.43-41.41-47.74
	c0-27.31,16.82-47.74,41.41-47.74c10.85,0,18.81,3.98,24.23,10.67v-8.14H261.63z M228.18,214.87c0-9.58-6.33-17-16.09-17
	c-9.76,0-16.09,7.41-16.09,17c0,9.58,6.33,17,16.09,17C221.85,231.87,228.18,224.45,228.18,214.87z"/>
<path class="st0" d="M309.56,201.49v19.53c0,9.4,6.69,9.77,18.99,9.04v30.02c-38.52,5.43-52.44-6.51-52.44-37.25v-21.34h-12.66
	v-31.83h12.66v-15.37l33.45-9.95v25.32h18.99v31.83H309.56z"/>
<path class="st0" d="M432.17,214.87c0,27.31-16.82,47.74-41.41,47.74c-10.85,0-18.81-3.98-24.23-10.67v8.14h-33.45V133.49
	l33.45-10.23v54.53c5.43-6.69,13.38-10.67,24.23-10.67C415.35,167.13,432.17,187.56,432.17,214.87z M398.71,214.87
	c0-9.58-6.33-17-16.09-17c-9.77,0-16.09,7.41-16.09,17c0,9.58,6.33,17,16.09,17C392.38,231.87,398.71,224.45,398.71,214.87z"/>
<path class="st0" d="M431.45,214.87c0-27.13,21.52-47.74,48.64-47.74c27.13,0,48.64,20.62,48.64,47.74
	c0,27.13-21.52,47.74-48.64,47.74C453.33,262.61,431.45,241.99,431.45,214.87z"/>
<path class="st0" d="M528.01,214.87c0-27.13,21.52-47.74,48.64-47.74c27.13,0,48.64,20.62,48.64,47.74
	c0,27.13-21.52,47.74-48.64,47.74C549.89,262.61,528.01,241.99,528.01,214.87z"/>
<path class="st0" d="M683.72,260.08l-21.7-36.17v36.17h-33.45v-137.5l33.45,10.91v71.25L681,169.66h37.98l-27.49,45.21l29.3,45.21
	H683.72z"/>
<path d="M591.5,213.75c0-9.4-6.33-29.38-15.19-29.38s-15.19,19.98-15.19,29.38c0,9.4,6.33,32.7,15.19,32.7
	S591.5,223.16,591.5,213.75z"/>
<path d="M493.95,213.75c0-9.4-6.33-29.38-15.19-29.38s-15.19,19.98-15.19,29.38c0,9.4,6.33,32.7,15.19,32.7
	S493.95,223.16,493.95,213.75z"/>
</svg>
